<svg width="42" height="42" viewBox="0 0 42 42" fill="none" xmlns="http://www.w3.org/2000/svg">
<path d="M23.5691 39.1394C23.9377 40.0173 23.1834 40.91 22.4534 40.2988C20.5076 38.67 19.2279 35.961 19.2207 32.8899C19.2207 32.4917 19.5964 32.1899 19.9947 32.1899H21.584C22.2074 32.1899 22.6761 32.7549 22.6306 33.3766C22.6081 33.6837 22.5981 33.9917 22.6007 34.2999C22.5965 35.9715 22.9296 37.6162 23.5691 39.1394Z" fill="#24201F"/>
<path d="M30 21C29.9766 19.8421 29.7252 18.7002 29.26 17.6396C28.7949 16.579 28.1252 15.6205 27.2893 14.819C26.4534 14.0174 25.4677 13.3885 24.3885 12.9683C23.3093 12.5481 22.1578 12.3448 21 12.37C18.6623 12.3218 16.4012 13.2037 14.7135 14.822C13.0259 16.4402 12.0499 18.6624 12 21C12.0499 23.3385 13.0256 25.5617 14.7129 27.1815C16.4003 28.8014 18.6614 29.6856 21 29.64C22.1583 29.6639 23.31 29.4593 24.3892 29.038C25.4685 28.6167 26.4542 27.9869 27.2899 27.1845C28.1257 26.3822 28.7952 25.423 29.2602 24.3619C29.7252 23.3007 29.9766 22.1583 30 21Z" fill="#24201F"/>
<path d="M19.3821 8.65916C19.3351 9.27506 19.8025 9.82997 20.4202 9.82997H22.0274C22.4157 9.82997 22.7905 9.51827 22.7905 9.12997C22.7905 6.0537 21.5033 3.33557 19.5534 1.70473C18.8244 1.09499 18.0712 1.9835 18.4392 2.85977C19.0831 4.39304 19.4204 6.04783 19.4205 7.72997C19.4185 8.04017 19.4057 8.35009 19.3821 8.65916Z" fill="#24201F"/>
<path d="M11.9101 11.19C12.0908 11.4363 12.2616 11.6895 12.4222 11.949C12.7508 12.48 13.4642 12.6598 13.9679 12.2905L15.2386 11.359C15.5678 11.1177 15.6776 10.6689 15.4501 10.33C13.6393 7.85091 11.0126 6.41485 8.48662 6.23703C7.53697 6.17018 7.44993 7.33395 8.26398 7.82755C9.68365 8.68835 10.926 9.82876 11.9101 11.19Z" fill="#24201F"/>
<path d="M7.88035 18.3999C8.17528 18.4964 8.46651 18.6035 8.75351 18.7208C9.32762 18.9556 10.0028 18.6797 10.1915 18.0889L10.6777 16.5658C10.7978 16.1898 10.6265 15.7396 10.2504 15.6199C7.31542 14.6753 4.32329 15.0618 2.17392 16.4159C1.37107 16.9216 1.98468 17.9072 2.9301 17.8263C4.59235 17.6842 6.27619 17.8754 7.88035 18.3999Z" fill="#24201F"/>
<path d="M10.0402 23.4736C9.91656 23.1003 9.50993 22.8355 9.14035 22.9699C6.22169 23.926 4.04204 25.9778 3.0918 28.3263C2.73477 29.2087 3.81517 29.6517 4.53669 29.0308C5.79396 27.9488 7.26222 27.1223 8.86035 26.6099C9.15063 26.5137 9.44446 26.429 9.74114 26.356C10.348 26.2067 10.7391 25.5829 10.5426 24.9897L10.0402 23.4736Z" fill="#24201F"/>
<path d="M12.5599 29.56C10.7608 32.05 10.2046 35.001 10.8206 37.4625C11.0515 38.385 12.1832 38.1078 12.4003 37.1819C12.7797 35.5642 13.4799 34.0285 14.4699 32.67C14.6547 32.4178 14.8482 32.1723 15.0501 31.934C15.4489 31.4631 15.3963 30.7405 14.897 30.3779L13.5769 29.419C13.2674 29.1943 12.7868 29.2521 12.5599 29.56Z" fill="#24201F"/>
<path d="M30.0807 30.81C29.9032 30.5648 29.7352 30.3131 29.5771 30.0554C29.2499 29.5223 28.5351 29.3418 28.0308 29.7119L26.7451 30.6557C26.4283 30.8882 26.3076 31.3537 26.5407 31.67C28.353 34.1512 30.9825 35.5927 33.5142 35.7678C34.464 35.8334 34.549 34.669 33.7343 34.1764C32.3111 33.3159 31.066 32.174 30.0807 30.81Z" fill="#24201F"/>
<path d="M34.1106 23.5999C33.8024 23.5027 33.4981 23.3941 33.1983 23.2742C32.62 23.043 31.944 23.3274 31.7627 23.9234L31.3067 25.4223C31.1899 25.8063 31.3666 26.263 31.7506 26.3799C34.6717 27.3224 37.6446 26.9397 39.794 25.5931C40.6002 25.088 39.9861 24.0961 39.0381 24.1754C37.3832 24.3139 35.7074 24.1221 34.1106 23.5999Z" fill="#24201F"/>
<path d="M31.9491 18.519C32.0733 18.8962 32.4801 19.1556 32.8601 19.04C35.7432 18.0813 37.9458 16.0161 38.9023 13.6568C39.2593 12.7764 38.1855 12.3371 37.4668 12.9586C36.2089 14.0463 34.7398 14.8796 33.1401 15.4C32.8428 15.494 32.5425 15.5778 32.2398 15.6513C31.6386 15.7971 31.2564 16.4155 31.4499 17.003L31.9491 18.519Z" fill="#24201F"/>
<path d="M29.4406 12.4399C31.2402 9.94935 31.7962 7.00279 31.1795 4.54015C30.9485 3.61745 29.8145 3.89386 29.5961 4.81964C29.2145 6.43719 28.5124 7.97226 27.5206 9.32994C27.3388 9.58092 27.1477 9.82494 26.9479 10.0615C26.5479 10.535 26.5994 11.262 27.1015 11.6254L28.4229 12.5818C28.7314 12.8051 29.2147 12.7466 29.4406 12.4399Z" fill="#24201F"/>
</svg>
