<svg width="448.037" height="452.567" xmlns="http://www.w3.org/2000/svg"><g style="display:inline;fill:none;stroke:#000;stroke-width:11;stroke-dasharray:none;stroke-opacity:1" transform="translate(-121.966 -105.418)"><ellipse style="stroke-width:15" ry="216.283" rx="214.019" cy="331.701" cx="345.984"/><path d="M154.996 330.123H539.34M346.312 169.67v342.569M338.882 330.912 220.105 436.666M353.219 330.56l118.776 105.753M233.127 392.076l43.802-6.314M460.34 391.77l-43.8-6.314M345.195 372.74l-73.79 64.716M346.499 371.51l73.79 64.716M345.984 417.33l-50.904 48.142M346.898 419.327l50.904 48.141M345.022 307.734 226.959 264.91M196.938 247.416c37.106 94.486 102.747 42.552 102.747 42.552s-29.411-54.007-102.747-42.552zM346.75 286.297l-93.408-91.072M233.686 175.788s-8.092 74.36 74.221 72.686c0 0 14.37-68.082-74.221-72.686zM345.995 143.42c-58.038 61.805.14 85.104.14 85.104s59.711-27.903-.14-85.104zM347.207 286.5l92.151-89.848M459.698 176.904c-91.102 2.092-73.384 72.547-73.384 72.547s69.339 3.07 73.384-72.547zM352.408 306.702 470.47 263.88M500.491 246.385c-37.105 94.486-102.747 42.552-102.747 42.552s29.412-54.008 102.747-42.552z"/></g></svg>